PathFileType	4	(X/Y/Z)	output.trc
DataRate	CameraRate	NumFrames	NumMarkers	Units	OrigDataRate	OrigDataStartFrame	OrigNumFrames
100	100	12	23	m	100	2427	4852
Frame#	Time	C7			T8			EL			EM			US			RS			AA			Fore_Clus_1			Fore_Clus_2			Fore_Clus_3			Fore_Clus_4			Hum_Clus_1			Hum_Clus_2			Hum_Clus_3			Hum_Clus_4			Thor_Clus_1			Thor_Clus_2			Thor_Clus_3			Thor_Clus_4			IJ			PX			GH			Thor_Clus_5		
		X1	Y1	Z1	X2	Y2	Z2	X3	Y3	Z3	X4	Y4	Z4	X5	Y5	Z5	X6	Y6	Z6	X7	Y7	Z7	X8	Y8	Z8	X9	Y9	Z9	X10	Y10	Z10	X11	Y11	Z11	X12	Y12	Z12	X13	Y13	Z13	X14	Y14	Z14	X15	Y15	Z15	X16	Y16	Z16	X17	Y17	Z17	X18	Y18	Z18	X19	Y19	Z19	X20	Y20	Z20	X21	Y21	Z21	X22	Y22	Z22	X23	Y23	Z23
2426	24.260000	-0.088604	1.578794	-0.027424	-0.100158	1.320604	-0.114464	-0.250755	1.146623	0.139501	-0.198954	1.127962	0.086826	-0.081486	1.041106	0.349995	-0.057033	1.096810	0.332327	-0.223001	1.466936	0.089611	-0.136723	1.072198	0.331986	-0.104269	1.064112	0.374933	-0.092585	1.089246	0.370680	-0.117899	1.113005	0.325209	-0.235278	1.252377	0.183575	-0.276830	1.257891	0.139898	-0.282492	1.321161	0.138483	-0.237559	1.326142	0.176337	0.056069	1.455165	0.080836	0.022634	1.393156	0.127689	0.019715	1.446493	0.105302	0.075277	1.405926	0.092080	-0.011830	1.481737	0.047782	0.031647	1.294422	0.063561	-0.193959	1.441365	0.086624	0.014291	1.414985	0.122261
2427	24.270000	-0.088682	1.578800	-0.027510	-0.100284	1.320598	-0.114514	-0.250795	1.146659	0.139417	-0.199025	1.128010	0.086708	-0.081503	1.041196	0.349956	-0.057072	1.096904	0.332275	-0.223052	1.466968	0.089580	-0.136752	1.072258	0.331949	-0.104271	1.064209	0.374859	-0.092634	1.089345	0.370638	-0.117965	1.113094	0.325142	-0.235333	1.252418	0.183530	-0.276890	1.257917	0.139855	-0.282558	1.321191	0.138433	-0.237599	1.326178	0.176279	0.055950	1.455173	0.080719	0.022584	1.393155	0.127602	0.019667	1.446501	0.105193	0.075222	1.405913	0.091960	-0.011893	1.481746	0.047685	0.031574	1.294430	0.063474	-0.194082	1.441413	0.086515	0.014205	1.415077	0.122216
2428	24.280000	-0.088753	1.578818	-0.027587	-0.100415	1.320613	-0.114571	-0.250832	1.146693	0.139319	-0.199092	1.128057	0.086576	-0.081526	1.041281	0.349917	-0.057112	1.096993	0.332223	-0.223101	1.467010	0.089552	-0.136788	1.072337	0.331900	-0.104287	1.064298	0.374809	-0.092692	1.089455	0.370592	-0.118007	1.113164	0.325090	-0.235367	1.252467	0.183443	-0.276947	1.257960	0.139809	-0.282622	1.321226	0.138379	-0.237639	1.326207	0.176214	0.055901	1.455179	0.080604	0.022529	1.393173	0.127484	0.019600	1.446514	0.105099	0.075143	1.405911	0.091866	-0.011953	1.481759	0.047590	0.031496	1.294439	0.063378	-0.194209	1.441461	0.086398	0.014119	1.415266	0.122241
2429	24.290000	-0.088817	1.578848	-0.027654	-0.100550	1.320645	-0.114634	-0.250866	1.146725	0.139212	-0.199156	1.128102	0.086434	-0.081553	1.041362	0.349877	-0.057152	1.097075	0.332169	-0.223148	1.467063	0.089527	-0.136803	1.072394	0.331845	-0.104310	1.064361	0.374738	-0.092742	1.089533	0.370563	-0.118063	1.113222	0.325043	-0.235444	1.252479	0.183450	-0.276975	1.257952	0.139715	-0.282686	1.321248	0.138304	-0.237695	1.326231	0.176148	0.055838	1.455195	0.080494	0.022455	1.393174	0.127432	0.019553	1.446509	0.104983	0.075086	1.405905	0.091763	-0.012011	1.481776	0.047499	0.031411	1.294448	0.063274	-0.194336	1.441507	0.086273	0.014098	1.415086	0.122005
2430	24.300000	-0.088878	1.578889	-0.027711	-0.100693	1.320692	-0.114700	-0.250898	1.146755	0.139095	-0.199217	1.128147	0.086283	-0.081582	1.041437	0.349829	-0.057191	1.097148	0.332103	-0.223194	1.467127	0.089508	-0.136810	1.072433	0.331784	-0.104318	1.064414	0.374650	-0.092834	1.089606	0.370495	-0.118116	1.113288	0.324981	-0.235268	1.252644	0.182708	-0.277021	1.257963	0.139627	-0.282754	1.321268	0.138230	-0.237732	1.326264	0.176066	0.055815	1.455195	0.080403	0.022545	1.393105	0.127017	0.019511	1.446517	0.104872	0.075042	1.405911	0.091644	-0.012067	1.481797	0.047413	0.031320	1.294459	0.063165	-0.194462	1.441554	0.086143	0.014071	1.415057	0.121891
2431	24.310000	-0.088930	1.578940	-0.027763	-0.100831	1.320756	-0.114777	-0.250933	1.146782	0.138981	-0.199280	1.128185	0.086139	-0.081614	1.041512	0.349787	-0.057229	1.097222	0.332046	-0.223240	1.467197	0.089482	-0.136845	1.072478	0.331729	-0.104359	1.064473	0.374592	-0.092615	1.089737	0.370731	-0.118175	1.113343	0.324917	-0.235349	1.252649	0.182702	-0.277088	1.257971	0.139566	-0.282832	1.321276	0.138142	-0.237784	1.326270	0.175980	0.055754	1.455211	0.080281	0.022504	1.393126	0.126919	0.019441	1.446525	0.104766	0.074990	1.405924	0.091539	-0.012121	1.481821	0.047328	0.031226	1.294472	0.063047	-0.194582	1.441592	0.086004	0.014027	1.415082	0.121795
2432	24.320000	-0.088980	1.578997	-0.027809	-0.100974	1.320828	-0.114854	-0.250968	1.146808	0.138867	-0.199341	1.128220	0.085995	-0.081643	1.041582	0.349736	-0.057264	1.097290	0.331978	-0.223285	1.467273	0.089461	-0.136861	1.072544	0.331662	-0.104387	1.064547	0.374525	-0.092687	1.089801	0.370648	-0.118232	1.113405	0.324848	-0.235629	1.252547	0.183271	-0.277146	1.257986	0.139497	-0.282898	1.321312	0.138074	-0.237825	1.326315	0.175878	0.055733	1.455240	0.080193	0.022540	1.393302	0.126826	0.019400	1.446539	0.104657	0.074971	1.405936	0.091437	-0.012175	1.481848	0.047247	0.031129	1.294486	0.062928	-0.194696	1.441628	0.085863	0.013986	1.415091	0.121699
2433	24.330000	-0.089026	1.579059	-0.027853	-0.101111	1.320907	-0.114937	-0.251009	1.146831	0.138760	-0.199405	1.128247	0.085865	-0.081669	1.041654	0.349687	-0.057296	1.097359	0.331914	-0.223330	1.467352	0.089433	-0.136920	1.072592	0.331612	-0.104426	1.064605	0.374448	-0.092745	1.089872	0.370618	-0.118293	1.113464	0.324774	-0.235520	1.252659	0.182705	-0.277212	1.257997	0.139412	-0.282951	1.321320	0.137980	-0.237892	1.326327	0.175796	0.055693	1.455253	0.080085	0.022447	1.393282	0.126874	0.019334	1.446541	0.104566	0.074791	1.405824	0.091255	-0.012227	1.481878	0.047167	0.031030	1.294501	0.062805	-0.194798	1.441656	0.085717	0.013937	1.415098	0.121602
2434	24.340000	-0.089069	1.579123	-0.027898	-0.101242	1.320990	-0.115025	-0.251055	1.146852	0.138664	-0.199470	1.128267	0.085751	-0.081692	1.041726	0.349637	-0.057325	1.097430	0.331852	-0.223375	1.467431	0.089399	-0.136967	1.072669	0.331571	-0.104470	1.064669	0.374389	-0.092805	1.089945	0.370559	-0.118327	1.113532	0.324707	-0.235485	1.252737	0.182341	-0.277266	1.258020	0.139313	-0.282995	1.321338	0.137860	-0.237938	1.326355	0.175658	0.055670	1.455267	0.079975	0.022379	1.393304	0.126878	0.019295	1.446551	0.104468	0.074653	1.405780	0.091148	-0.012278	1.481908	0.047087	0.030933	1.294517	0.062683	-0.194888	1.441676	0.085569	0.013907	1.415112	0.121511
2435	24.350000	-0.089112	1.579185	-0.027945	-0.101372	1.321069	-0.115109	-0.251106	1.146871	0.138576	-0.199535	1.128281	0.085651	-0.081708	1.041798	0.349580	-0.057351	1.097502	0.331783	-0.223420	1.467509	0.089365	-0.137002	1.072721	0.331509	-0.104492	1.064739	0.374306	-0.092847	1.090009	0.370498	-0.118380	1.113586	0.324623	-0.235542	1.252741	0.182280	-0.277338	1.258029	0.139237	-0.283054	1.321351	0.137745	-0.238013	1.326362	0.175588	0.055649	1.455301	0.079874	0.022346	1.393328	0.126760	0.019241	1.446560	0.104367	0.074614	1.405797	0.091048	-0.012329	1.481939	0.047007	0.030837	1.294534	0.062564	-0.194965	1.441690	0.085425	0.013851	1.415117	0.121429
2436	24.360000	-0.089152	1.579245	-0.027999	-0.101488	1.321144	-0.115200	-0.251165	1.146888	0.138504	-0.199604	1.128285	0.085574	-0.081721	1.041874	0.349528	-0.057375	1.097582	0.331727	-0.223466	1.467582	0.089318	-0.137032	1.072803	0.331445	-0.104514	1.064819	0.374228	-0.092880	1.090087	0.370424	-0.118405	1.113654	0.324541	-0.235598	1.252756	0.182193	-0.277377	1.258049	0.139134	-0.283100	1.321375	0.137641	-0.237916	1.326575	0.174874	0.055624	1.455329	0.079788	0.022297	1.393338	0.126655	0.019193	1.446589	0.104283	0.074583	1.405827	0.090939	-0.012379	1.481969	0.046925	0.030746	1.294552	0.062447	-0.195026	1.441694	0.085281	0.013812	1.415141	0.121339
2437	24.370000	-0.089196	1.579297	-0.028061	-0.101602	1.321207	-0.115283	-0.251228	1.146904	0.138439	-0.199671	1.128285	0.085510	-0.081728	1.041950	0.349467	-0.057396	1.097662	0.331660	-0.223512	1.467652	0.089270	-0.137050	1.072840	0.331392	-0.104554	1.064882	0.374167	-0.092921	1.090153	0.370353	-0.118479	1.113723	0.324432	-0.235649	1.252775	0.182102	-0.277456	1.258058	0.139052	-0.283161	1.321393	0.137519	-0.238101	1.326444	0.175242	0.055588	1.455352	0.079688	0.022226	1.393346	0.126556	0.019141	1.446598	0.104183	0.074541	1.405831	0.090852	-0.012430	1.481998	0.046841	0.030659	1.294570	0.062337	-0.195075	1.441694	0.085144	0.013740	1.415151	0.121250
